<?xml version="1.0" standalone="no"?>
<!DOCTYPE svg PUBLIC "-//W3C//DTD SVG 20010904//EN"
 "http://www.w3.org/TR/2001/REC-SVG-20010904/DTD/svg10.dtd">
<svg version="1.0" xmlns="http://www.w3.org/2000/svg"
 width="932.000000pt" height="980.000000pt" viewBox="0 0 932.000000 980.000000"
 preserveAspectRatio="xMidYMid meet">

<g transform="translate(0.000000,980.000000) scale(0.100000,-0.100000)"
fill="#000000" stroke="none">
<path d="M4315 9794 c-727 -80 -1313 -266 -1890 -599 -503 -291 -986 -716
-1370 -1205 -514 -656 -869 -1493 -995 -2352 -68 -464 -68 -1032 0 -1496 247
-1680 1308 -3105 2805 -3767 476 -211 983 -336 1485 -366 211 -13 599 -7 790
11 478 46 1052 216 1513 446 571 287 1088 698 1504 1197 619 743 1002 1643
1125 2648 20 162 22 231 23 579 0 391 -4 458 -41 725 -140 1010 -578 1943
-1269 2699 -771 844 -1850 1379 -2955 1466 -144 11 -658 21 -725 14z m115
-1554 l0 -1130 -37 0 c-65 0 -419 29 -618 50 -353 38 -713 99 -800 136 -33 13
-37 18 -32 43 9 45 94 235 182 411 211 416 419 705 734 1021 166 165 248 233
413 343 101 66 107 78 89 172 -7 35 -10 68 -6 73 3 6 22 11 41 11 l34 0 0
-1130z m1280 989 c456 -130 804 -289 1190 -545 241 -160 413 -300 680 -552
l104 -98 -36 -50 c-84 -113 -234 -236 -439 -360 -128 -77 -429 -224 -459 -224
-23 0 -55 59 -116 215 -21 55 -73 170 -115 255 -254 517 -621 1015 -994 1350
l-70 63 60 -8 c32 -4 120 -24 195 -46z m-2010 21 c0 -13 -39 -58 -205 -235
-170 -182 -239 -261 -339 -393 -214 -284 -438 -689 -602 -1092 -39 -96 -45
-105 -68 -103 -42 3 -333 122 -481 198 -232 117 -445 261 -445 300 0 19 204
229 363 376 335 308 774 585 1202 759 170 69 381 146 480 175 93 28 95 28 95
15z m1252 -133 c212 -146 492 -411 672 -637 192 -241 387 -552 508 -810 69
-146 145 -329 153 -367 6 -30 4 -34 -22 -44 -121 -47 -756 -126 -1153 -144
-74 -3 -154 -8 -177 -11 l-43 -5 0 1025 c0 564 3 1026 8 1026 4 -1 28 -15 54
-33z m3152 -1632 c427 -638 673 -1339 765 -2177 12 -103 21 -189 21 -192 0 -5
-1762 4 -1768 9 -1 1 -9 116 -17 256 -31 525 -63 750 -204 1419 -37 175 -38
200 -11 200 30 0 155 52 310 130 286 143 445 252 646 441 l118 111 24 -28 c12
-16 65 -92 116 -169z m-6698 -5 c54 -40 141 -97 193 -127 136 -80 415 -213
576 -274 155 -58 185 -74 185 -97 0 -9 -25 -126 -56 -261 -100 -438 -149 -780
-187 -1310 l-22 -296 -827 -3 -828 -2 0 85 c0 285 158 1008 299 1365 170 434
497 1019 555 997 7 -3 57 -37 112 -77z m1529 -625 c365 -79 900 -144 1323
-161 l172 -7 0 -788 0 -789 -946 0 -947 0 7 183 c19 500 84 970 197 1419 33
133 47 168 65 168 7 0 65 -11 129 -25z m3492 -30 c25 -18 37 -57 92 -300 91
-407 146 -824 167 -1272 l7 -143 -901 0 -902 0 0 779 0 778 57 12 c31 6 101
11 155 11 282 0 927 74 1168 135 74 18 131 18 157 0z m-4323 -2187 c3 -18 17
-150 31 -292 41 -422 125 -948 202 -1276 55 -231 70 -199 -142 -291 -324 -141
-606 -292 -843 -451 -57 -38 -105 -68 -107 -66 -8 9 -151 237 -196 314 -307
520 -525 1204 -593 1869 -9 83 -18 167 -21 188 l-5 37 834 0 834 0 6 -32z
m2326 -676 l0 -709 -144 -6 c-344 -16 -787 -82 -1201 -178 -93 -22 -196 -42
-227 -46 l-56 -6 -16 52 c-80 270 -246 1327 -246 1568 l0 33 945 0 945 0 0
-708z m2250 674 c0 -171 -102 -902 -180 -1286 -46 -231 -66 -299 -87 -307 -8
-3 -90 13 -182 35 -369 92 -716 143 -1113 164 l-228 12 0 708 0 708 895 0 895
0 0 -34z m2206 -8 c-3 -24 -13 -110 -22 -193 -83 -789 -345 -1513 -782 -2162
-35 -51 -67 -93 -73 -93 -10 0 -73 46 -222 163 -186 145 -389 268 -701 424
-127 63 -232 117 -234 118 -2 2 24 137 57 301 95 470 165 955 192 1317 l12
167 889 0 889 0 -5 -42z m-4456 -2948 c0 -632 -3 -1150 -7 -1150 -19 0 -251
145 -340 211 -123 93 -322 290 -437 434 -97 122 -245 340 -325 482 -123 218
-341 717 -373 852 -10 47 -10 52 8 66 107 79 1001 237 1437 254 l37 1 0 -1150z
m934 1115 c360 -41 882 -148 915 -188 33 -40 -140 -491 -327 -850 -262 -504
-568 -863 -947 -1109 -88 -57 -90 -58 -98 -36 -5 13 -12 518 -15 1122 l-5
1099 133 -7 c73 -4 228 -18 344 -31z m1555 -425 c281 -141 588 -343 771 -509
l45 -40 -166 -164 c-505 -498 -1021 -818 -1663 -1032 -250 -84 -296 -95 -296
-72 0 8 50 68 111 133 394 422 663 874 911 1528 33 87 68 178 78 202 l19 43
55 -24 c31 -14 91 -43 135 -65z m-4407 33 c8 -16 46 -108 82 -206 228 -607
505 -1075 880 -1491 88 -98 115 -136 95 -136 -38 0 -387 134 -599 230 -287
130 -588 316 -852 526 -190 152 -542 493 -575 559 -24 46 2 70 223 197 223
129 671 347 714 348 9 0 23 -12 32 -27z"/>
</g>
</svg>
